<?xml version="1.0" standalone="no"?>
<!DOCTYPE svg PUBLIC "-//W3C//DTD SVG 1.1//EN" "http://www.w3.org/Graphics/SVG/1.1/DTD/svg11.dtd" >
<svg xmlns="http://www.w3.org/2000/svg" xmlns:xlink="http://www.w3.org/1999/xlink" version="1.1">
<metadata></metadata>
<defs>
<font id="sonic_xbd_btextra_bold" horiz-adv-x="1233" >
<font-face units-per-em="2048" ascent="1556" descent="-492" />
<missing-glyph horiz-adv-x="657" />
<glyph horiz-adv-x="0" />
<glyph unicode="&#xd;" horiz-adv-x="657" />
<glyph unicode=" "  horiz-adv-x="657" />
<glyph unicode="&#x09;" horiz-adv-x="657" />
<glyph unicode="&#xa0;" horiz-adv-x="657" />
<glyph unicode="!" horiz-adv-x="612" d="M-184 0l155 338h367l-156 -338h-366zM6 424l424 928h367l-424 -928h-367z" />
<glyph unicode="&#x22;" horiz-adv-x="735" d="M260 795v557h217v-557h-217zM596 795v557h217v-557h-217z" />
<glyph unicode="#" horiz-adv-x="1247" d="M-82 397l100 215h201l103 228h-203l100 215h201l133 297h258l-137 -297h233l135 297h267l-135 -297h198l-98 -215h-199l-102 -228h207l-101 -215h-202l-183 -397h-266l180 397h-223l-180 -397h-266l184 397h-205zM473 612h244l104 228h-243z" />
<glyph unicode="$" horiz-adv-x="1128" d="M-84 0l135 297h332q109 0 162 44.5t53 135.5q0 54 -152 106q-21 7 -32 11q-158 55 -201 97t-43 110q0 32 9.5 76.5t27.5 99.5q24 69 50 129t48 96q43 69 74 96t70 37q35 8 81 12.5t101 4.5l71 159h269l-72 -159h186l-137 -297h-254q-77 0 -111 -26t-34 -85 q0 -24 31 -44.5t147 -61.5q140 -51 193 -104.5t53 -139.5q0 -40 -18.5 -109t-57.5 -174q-23 -62 -49.5 -110.5t-54.5 -79.5q-53 -62 -116 -89.5t-153 -27.5h-30l-72 -164h-270l71 160h-307z" />
<glyph unicode="%" horiz-adv-x="2290" d="M72 629q0 12 3.5 24.5t10.5 26.5l250 553q30 67 75 93t140 26h407q55 0 86 -24t31 -64q0 -11 -4 -26t-10 -28l-250 -551q-31 -66 -76.5 -92t-140.5 -26h-408q-53 0 -83.5 23.5t-30.5 64.5zM416 772q0 -15 17 -23t50 -8q45 0 64 10.5t33 39.5l141 309q2 7 3 11t1 7 q0 17 -18 25t-54 8q-37 0 -57.5 -11.5t-32.5 -37.5l-141 -309q-3 -6 -4.5 -11t-1.5 -10zM551 0l887 1352h303l-887 -1352h-303zM1217 88q0 12 3.5 24.5t10.5 26.5l250 553q30 67 76 93t141 26h407q54 0 84.5 -23.5t30.5 -64.5q0 -13 -3 -26t-9 -25l-252 -553 q-31 -68 -75.5 -93.5t-139.5 -25.5h-410q-54 0 -84 23.5t-30 64.5zM1563 231q0 -15 16.5 -22.5t48.5 -7.5q45 0 64 10.5t32 38.5l142 310q2 6 3 10.5t1 7.5q0 16 -18 24t-54 8q-37 0 -57.5 -11t-32.5 -38l-139 -309q-3 -6 -4.5 -11t-1.5 -10z" />
<glyph unicode="&#x26;" horiz-adv-x="1229" d="M-100 147q0 18 5.5 40.5t16.5 45.5l178 392q26 59 65.5 82.5t113.5 23.5h10q-36 24 -53 53t-17 68q0 18 6 40.5t17 45.5l98 215q50 112 125.5 155.5t234.5 43.5h381l-129 -297h-182q-51 0 -83.5 -20.5t-53.5 -65.5l-58 -115h277l-78 -174h297l-92 -207h-45l33 -254 q1 -9 1.5 -18.5t0.5 -28.5q0 -88 -51.5 -131t-155.5 -43q-18 0 -27.5 0.5t-18.5 1.5h-624q-90 0 -141 39.5t-51 107.5zM362 352q0 -25 21.5 -40t58.5 -15h236l-37 291h-178l-92 -203q-5 -8 -7 -16t-2 -17z" />
<glyph unicode="'" horiz-adv-x="414" d="M256 795v557h219v-557h-219z" />
<glyph unicode="(" horiz-adv-x="696" d="M-178 0l606 1352h467l-111 -248h-172l-383 -856h172l-112 -248h-467z" />
<glyph unicode=")" horiz-adv-x="696" d="M-199 0l113 248h170l383 856h-170l113 248h467l-609 -1352h-467z" />
<glyph unicode="*" horiz-adv-x="915" d="M199 973l82 250l247 -158l-71 287h262l-72 -287l248 158l80 -248l-295 -23l229 -186l-211 -156l-112 273l-109 -273l-211 156l226 186z" />
<glyph unicode="+" horiz-adv-x="1389" d="M82 545v262h481v498h262v-498h482v-262h-482v-498h-262v498h-481z" />
<glyph unicode="," horiz-adv-x="616" d="M-315 -287l266 584h432l-475 -584h-223z" />
<glyph unicode="-" horiz-adv-x="797" d="M29 532l145 314h592l-143 -314h-594z" />
<glyph unicode="." horiz-adv-x="616" d="M-197 0l158 338h389l-155 -338h-392z" />
<glyph unicode="/" horiz-adv-x="606" d="M-309 0l938 1352h295l-938 -1352h-295z" />
<glyph unicode="0" d="M-100 147q0 20 5.5 41.5t16.5 44.5l418 922q51 111 125 154t235 43h439q90 0 142 -40t52 -108q0 -17 -6 -38.5t-18 -47.5l-418 -921q-50 -111 -125 -154t-236 -43h-438q-89 0 -140.5 39.5t-51.5 107.5zM377 356q0 -27 24 -43t64 -16q42 0 71.5 21t49.5 65l264 582 q5 12 6.5 18.5t1.5 11.5q0 27 -21 43.5t-57 16.5q-46 0 -79.5 -22t-53.5 -64l-262 -582q-4 -10 -6 -18t-2 -13z" />
<glyph unicode="1" horiz-adv-x="778" d="M-84 0l438 965q4 8 6 17t2 19q0 25 -19.5 39.5t-53.5 14.5h-99l134 297h598l-615 -1352h-391z" />
<glyph unicode="2" horiz-adv-x="1110" d="M-244 0l74 166q36 84 97.5 152t162.5 135l502 329q31 20 47 35.5t25 32.5h401q-27 -82 -89 -148t-163 -122l-516 -283h614l-135 -297h-1020zM205 1055l137 297h666q87 0 138.5 -37.5t51.5 -100.5q0 -57 -15 -108t-24 -51h-954z" />
<glyph unicode="3" horiz-adv-x="1151" d="M-215 0l141 297h457q51 0 83.5 20.5t53.5 65.5l35 80q1 2 2 5q6 19 6 30q0 25 -22 40t-62 15h-223l141 297h248q45 0 76 18.5t45 55.5l16 40q3 9 4.5 17t1.5 14q0 28 -21 44t-58 16h-478l142 297h700q91 0 143 -40t52 -110q0 -16 -6 -36.5t-19 -47.5l-139 -305 q-26 -58 -66 -82t-112 -24h-11q35 -22 52.5 -52.5t17.5 -68.5q0 -16 -5.5 -37t-16.5 -49l-138 -303q-50 -112 -124.5 -154.5t-235.5 -42.5h-680z" />
<glyph unicode="4" horiz-adv-x="1165" d="M-135 297l125 283l631 624q82 81 166 114.5t204 33.5h346l-137 -297h-373l-485 -502h244l133 297h389l-385 -850h-389l135 297h-604z" />
<glyph unicode="5" horiz-adv-x="1313" d="M-180 0l133 297h575q52 0 84 20.5t54 65.5l36 79q4 8 5.5 15t1.5 21q0 25 -22.5 40t-61.5 15h-557l137 297h790q91 0 142 -39.5t51 -108.5q0 -18 -5.5 -39.5t-17.5 -46.5l-192 -419q-52 -112 -126.5 -154.5t-234.5 -42.5h-792zM297 1055l133 297h709q90 0 141 -40 t51 -110q0 -19 -5.5 -40t-16.5 -43l-29 -64h-983z" />
<glyph unicode="6" d="M-100 147q0 18 5.5 40.5t16.5 45.5l418 922q51 111 125 154t235 43h439q90 0 141 -40t51 -110q0 -17 -5.5 -38.5t-16.5 -45.5l-29 -63h-496q-51 0 -83.5 -20.5t-53.5 -65.5l-35 -74h320q90 0 141 -39.5t51 -107.5q0 -18 -5.5 -40.5t-16.5 -45.5l-211 -465 q-50 -112 -125 -154.5t-236 -42.5h-438q-90 0 -141 39.5t-51 107.5zM356 348q0 -30 25.5 -49.5t67.5 -19.5q50 0 85.5 23.5t59.5 74.5l59 129q6 14 9.5 26t3.5 23q0 29 -24.5 44t-72.5 15h-96l-108 -233q-5 -8 -7 -16t-2 -17z" />
<glyph unicode="7" horiz-adv-x="963" d="M-88 0l631 850h420l-590 -850h-461zM176 1055l137 297h666q90 0 142.5 -40.5t52.5 -109.5q0 -24 -6.5 -46t-18.5 -38l-43 -63h-930z" />
<glyph unicode="8" d="M-100 147q0 20 5.5 41.5t16.5 44.5l146 320q42 91 90.5 122.5t137.5 31.5q-52 3 -79 25.5t-27 62.5q0 12 3.5 26t9.5 29l137 305q51 112 123.5 154.5t236.5 42.5h439q90 0 141 -40t51 -110q0 -19 -5.5 -40t-16.5 -43l-125 -271q-26 -59 -65.5 -83t-112.5 -24h-11 q35 -21 52.5 -51.5t17.5 -71.5q0 -17 -6 -38.5t-17 -44.5l-151 -338q-50 -111 -125 -154t-236 -43h-438q-90 0 -141 39.5t-51 107.5zM346 336q0 -32 26.5 -50t73.5 -18q55 0 92 22.5t58 67.5l53 115q6 14 8 22.5t2 16.5q0 33 -29 52.5t-81 19.5q-50 0 -86 -23t-55 -67 l-52 -116q-5 -14 -7.5 -24.5t-2.5 -17.5zM608 885q0 -31 24.5 -48.5t67.5 -17.5q51 0 85 21t51 63l28 63q3 10 4.5 18t1.5 17q0 31 -24.5 49.5t-67.5 18.5q-50 0 -84 -21t-51 -63l-29 -66q-3 -6 -4.5 -13.5t-1.5 -20.5z" />
<glyph unicode="9" d="M-162 0l137 297h474q51 0 83.5 20.5t53.5 65.5l35 74h-322q-90 0 -141.5 39t-51.5 108q0 18 6 40.5t17 45.5l211 465q51 111 125 154t235 43h439q90 0 141 -40t51 -110q0 -17 -5.5 -38.5t-16.5 -45.5l-418 -921q-50 -112 -125 -154.5t-236 -42.5h-692zM565 797 q0 -30 25 -46t72 -16h98l106 236q5 8 6.5 16.5t1.5 18.5q0 29 -24.5 48t-65.5 19q-51 0 -87.5 -24t-59.5 -74l-57 -129q-8 -18 -11.5 -29t-3.5 -20z" />
<glyph unicode=":" horiz-adv-x="639" d="M-184 0l155 338h391l-155 -338h-391zM47 512l156 338h391l-156 -338h-391z" />
<glyph unicode=";" horiz-adv-x="639" d="M-315 -287l266 584h432l-475 -584h-223zM47 512l156 338h391l-156 -338h-391z" />
<glyph unicode="&#x3c;" horiz-adv-x="1706" d="M264 512v199l1178 483v-219l-893 -365l893 -364v-219z" />
<glyph unicode="=" horiz-adv-x="1389" d="M82 322v241h1225v-241h-1225zM82 793v241h1225v-241h-1225z" />
<glyph unicode="&#x3e;" horiz-adv-x="1706" d="M264 27v219l895 364l-895 365v219l1178 -483v-199z" />
<glyph unicode="?" horiz-adv-x="963" d="M-119 0l156 338h389l-156 -338h-389zM74 424l24 57q23 53 81.5 105t152.5 104l162 92q30 17 63.5 54.5t48.5 72.5l23 56q5 12 8.5 26.5t3.5 26.5q0 16 -15.5 26.5t-41.5 10.5h-369l137 297h525q86 0 138 -38.5t52 -101.5q0 -34 -9 -71.5t-28 -79.5l-121 -266 q-37 -82 -72.5 -119.5t-97.5 -67.5l-151 -73q-41 -20 -71 -47.5t-50 -63.5h-393z" />
<glyph unicode="@" horiz-adv-x="2048" d="M90 520q0 167 52.5 318.5t154.5 275.5q148 181 356 274t463 93q169 0 317.5 -45.5t258.5 -128.5q135 -105 201.5 -239.5t66.5 -303.5q0 -165 -65.5 -304.5t-188.5 -238.5q-70 -56 -152.5 -85.5t-171.5 -29.5q-106 0 -159.5 42t-55.5 124q-55 -84 -127 -123.5t-170 -39.5 q-158 0 -240.5 86t-82.5 254q0 239 139.5 401t343.5 162q80 0 139 -33t97 -98l53 98h178l-147 -598q-3 -11 -5 -22.5t-2 -18.5q0 -35 24 -52.5t71 -17.5q39 0 81.5 20t79.5 56q86 80 130.5 187t44.5 235q0 240 -185.5 394.5t-478.5 154.5q-141 0 -262.5 -34t-220.5 -101 q-170 -114 -261.5 -285t-91.5 -375q0 -307 207 -490.5t553 -183.5q162 0 316.5 49t287.5 142l82 -117q-153 -115 -324.5 -173t-357.5 -58q-192 0 -353 48.5t-286 143.5q-155 121 -232 279t-77 358zM760 444q0 -92 40.5 -140t117.5 -48q83 0 151.5 63t93.5 164l54 217 q-13 81 -57.5 123.5t-117.5 42.5q-114 0 -198 -124t-84 -298z" />
<glyph unicode="A" horiz-adv-x="1284" d="M-338 0l705 850h403l-420 -553h291l215 688q0 1 1 3q3 13 3 22q0 20 -15 32.5t-40 12.5h-434l131 297h643q70 0 110.5 -37t40.5 -101q0 -17 -2 -32t-6 -29l-336 -1153h-1290z" />
<glyph unicode="B" horiz-adv-x="1223" d="M-184 0l389 850h602l51 125q3 5 4.5 12t1.5 14q0 28 -20 46t-51 18h-492l129 287h709q90 0 141 -40t51 -110q0 -18 -5.5 -39t-16.5 -45l-162 -356q-26 -60 -65 -83.5t-113 -23.5h-11q36 -23 53 -52.5t17 -67.5q0 -18 -6 -40.5t-16 -45.5l-115 -252q-50 -111 -125 -154 t-236 -43h-714zM332 293h217l82 185q3 8 4.5 14t1.5 12q0 27 -20.5 45t-51.5 18h-108z" />
<glyph unicode="C" horiz-adv-x="1139" d="M-100 147q0 20 5.5 41.5t16.5 44.5l418 922q50 112 122.5 154.5t237.5 42.5h377q91 0 142 -40t51 -110q0 -17 -6 -38.5t-17 -45.5l-28 -63h-435q-51 0 -85 -21.5t-52 -64.5l-51 -119l-211 -463q-4 -8 -6 -16t-2 -17q0 -25 19.5 -41t52.5 -16h456l-45 -100 q-50 -113 -122 -155t-238 -42h-408q-89 0 -140.5 39.5t-51.5 107.5z" />
<glyph unicode="D" d="M-184 0l387 850h387l-248 -553h107q54 0 84 19t53 67l264 582q4 8 6 16t2 16q0 26 -20.5 42t-53.5 16h-489l135 297h709q90 0 142 -40t52 -108q0 -17 -6 -38.5t-18 -47.5l-418 -921q-50 -112 -125 -154.5t-236 -42.5h-714z" />
<glyph unicode="E" horiz-adv-x="977" d="M-184 0l387 850h735l-135 -297h-344l-117 -256h344l-135 -297h-735zM295 1055l135 297h735l-135 -297h-735z" />
<glyph unicode="F" horiz-adv-x="944" d="M-184 0l387 850h735l-135 -297h-344l-252 -553h-391zM295 1055l135 297h735l-135 -297h-735z" />
<glyph unicode="G" d="M-100 147q0 20 5.5 41.5t16.5 44.5l418 922q51 111 125 154t235 43h439q90 0 141 -40t51 -110q0 -17 -5.5 -38.5t-16.5 -45.5l-29 -63h-496q-51 0 -84 -21t-53 -65l-262 -584q0 -1 -2 -6q-6 -18 -6 -27q0 -25 23 -40t63 -15q51 0 83.5 20.5t53.5 65.5l78 170h-115 l135 297h488l-295 -653q-50 -111 -125 -154t-236 -43h-438q-89 0 -140.5 39.5t-51.5 107.5z" />
<glyph unicode="H" d="M-184 0l614 1352h391l-227 -502h205l227 502h389l-614 -1352h-389l252 553h-205l-252 -553h-391z" />
<glyph unicode="I" horiz-adv-x="635" d="M-184 0l614 1352h391l-614 -1352h-391z" />
<glyph unicode="J" horiz-adv-x="739" d="M-287 0l135 297h105q50 0 84 21t53 65l440 969h392l-525 -1155q-49 -111 -124.5 -154t-235.5 -43h-324z" />
<glyph unicode="K" horiz-adv-x="1436" d="M-184 0l385 850h438q87 0 157.5 -53t123.5 -158l315 -639h-389l-203 438l-4 9q-50 106 -131 106h-49l-252 -553h-391zM295 1055l135 297h391l-143 -291l168 168q81 79 143 101t158 22h278l-135 -297h-995z" />
<glyph unicode="L" horiz-adv-x="905" d="M-184 0l614 1352h391l-479 -1055h365l-136 -297h-755z" />
<glyph unicode="M" horiz-adv-x="1817" d="M-182 0l383 850h391l-385 -850h-389zM297 1055l133 297h1294q90 0 141.5 -40t51.5 -110q0 -17 -6 -38.5t-17 -45.5l-508 -1118h-391l439 965q2 5 4 12.5t2 13.5q0 27 -20.5 45.5t-51.5 18.5h-1071zM412 0l383 850h385l-383 -850h-385z" />
<glyph unicode="N" d="M-184 0l387 850h389l-385 -850h-391zM297 1055l133 297h709q90 0 141 -40t51 -110q0 -17 -5.5 -38.5t-16.5 -45.5l-508 -1118h-389l438 965q3 7 4.5 15t1.5 15q0 29 -18.5 44.5t-53.5 15.5h-487z" />
<glyph unicode="O" d="M-100 147q0 17 6 38.5t18 47.5l416 922q51 111 125 154t235 43h439q90 0 142 -40t52 -108q0 -19 -5.5 -40.5t-16.5 -44.5l-420 -922q-50 -112 -125 -154.5t-236 -42.5h-438q-89 0 -140.5 39.5t-51.5 107.5zM377 354q0 -27 22.5 -42t63.5 -15t70.5 21t50.5 65l264 582 q5 12 6.5 18.5t1.5 11.5q0 27 -21 43.5t-57 16.5q-46 0 -78.5 -21.5t-52.5 -64.5l-262 -578q-4 -8 -6 -17t-2 -20z" />
<glyph unicode="P" horiz-adv-x="1204" d="M-184 0l389 850h596l49 115q3 7 4.5 15t1.5 15q0 27 -19.5 43.5t-52.5 16.5h-487l133 297h709q90 0 141 -40t51 -110q0 -18 -5.5 -39t-16.5 -45l-174 -383q-51 -110 -108.5 -146t-195.5 -36h-370l-254 -553h-391z" />
<glyph unicode="Q" horiz-adv-x="1247" d="M-100 147q0 17 6 38.5t18 47.5l416 922q51 111 125 154t235 43h439q90 0 142 -40t52 -108q0 -18 -5.5 -40.5t-16.5 -45.5l-324 -712q-23 -51 -43.5 -73.5t-50.5 -35.5h170l-135 -297h-836q-89 0 -140.5 39.5t-51.5 107.5zM377 354q0 -27 22.5 -42t63.5 -15t70.5 21 t50.5 65l264 582q5 12 6.5 18.5t1.5 11.5q0 27 -21 43.5t-57 16.5q-46 0 -78.5 -21.5t-52.5 -64.5l-262 -578q-4 -8 -6 -17t-2 -20z" />
<glyph unicode="R" d="M-184 0l383 840h604l55 129q3 7 4.5 14.5t1.5 15.5q0 26 -19.5 43t-51.5 17h-496l133 293h709q90 0 141 -40t51 -110q0 -18 -5.5 -39t-16.5 -45l-207 -459q-27 -58 -67 -82t-111 -24h-13q35 -22 52.5 -52.5t17.5 -68.5q0 -18 -6 -40.5t-17 -45.5l-157 -346h-381l211 473 q3 6 4.5 13t1.5 14q0 26 -20.5 44.5t-51.5 18.5h-98l-260 -563h-391z" />
<glyph unicode="S" d="M-219 0l135 297h446q98 0 153.5 11t90.5 36q46 33 71 76.5t25 87.5q0 70 -114 106q-25 8 -40 13q-126 44 -179.5 112t-53.5 185q0 188 116 308t300 120h512l-137 -297h-291q-58 0 -91.5 -25.5t-33.5 -68.5q0 -62 150 -99q31 -8 47 -12q107 -28 167 -112.5t60 -207.5 q0 -92 -39 -183.5t-104 -156.5q-61 -58 -126.5 -96.5t-156.5 -68.5q-39 -12 -121 -18.5t-196 -6.5h-590z" />
<glyph unicode="T" horiz-adv-x="1006" d="M18 0l385 850h392l-385 -850h-392zM150 1055l135 297h1046l-135 -297h-1046z" />
<glyph unicode="U" d="M-100 147q0 20 5.5 41.5t16.5 44.5l508 1119h391l-432 -955q-5 -10 -7.5 -20.5t-2.5 -22.5q0 -28 21.5 -42.5t62.5 -14.5t72 21.5t51 64.5l440 969h389l-524 -1155q-50 -111 -125 -154t-236 -43h-438q-89 0 -140.5 39.5t-51.5 107.5z" />
<glyph unicode="V" horiz-adv-x="1229" d="M209 1352h371l20 -736l385 625q37 59 96 85t160 26h315l-135 -297h-35q-76 0 -125 -24.5t-85 -80.5l-631 -950h-205z" />
<glyph unicode="W" horiz-adv-x="1907" d="M209 1352h371l30 -713l430 713h207l64 -713l344 608q33 59 89.5 84t162.5 25h317l-135 -297h-35q-79 0 -130 -25.5t-81 -79.5l-536 -954h-220l-92 754l-424 -754h-217z" />
<glyph unicode="X" horiz-adv-x="1229" d="M-242 0l136 297h65q65 0 113 19.5t78 58.5l278 364l-203 613h361l94 -326l131 203q41 63 106.5 93t165.5 30h277l-135 -297h-35q-69 0 -116 -19.5t-75 -58.5l-196 -281l229 -696h-362l-127 395l-187 -250q-56 -75 -146 -110t-228 -35h-224z" />
<glyph unicode="Y" d="M-184 0l135 297h498q51 0 83.5 20.5t53.5 65.5l35 74h-322q-90 0 -141.5 39t-51.5 108q1 20 6.5 41.5t16.5 44.5l301 662h391l-231 -502q-3 -6 -4.5 -15t-1.5 -22q0 -28 21 -43.5t61 -15.5h88l272 598h389l-524 -1155q-50 -112 -125 -154.5t-236 -42.5h-714z" />
<glyph unicode="Z" horiz-adv-x="1057" d="M-285 0l86 188l881 867h-444l135 297h887l-39 -207l-869 -848h477l-135 -297h-979z" />
<glyph unicode="[" horiz-adv-x="696" d="M-100 147q0 17 6 38.5t18 47.5l416 922q51 111 125 154t235 43h195l-111 -248h-39q-77 0 -114 -21t-62 -75l-288 -646q-6 -13 -9.5 -26.5t-3.5 -26.5q0 -32 23.5 -46.5t73.5 -14.5h63l-113 -248h-223q-89 0 -140.5 39.5t-51.5 107.5z" />
<glyph unicode="\" horiz-adv-x="862" d="M236 1352h266l131 -1352h-264z" />
<glyph unicode="]" horiz-adv-x="696" d="M-201 0l111 248h39q77 0 114.5 21t61.5 75l289 645q6 14 9 27.5t3 25.5q0 32 -23 47t-73 15h-64l113 248h223q90 0 141.5 -40t51.5 -108q0 -18 -6 -40t-17 -46l-418 -921q-50 -112 -124.5 -154.5t-235.5 -42.5h-195z" />
<glyph unicode="^" horiz-adv-x="2048" d="M416 899l481 561h252l481 -561h-235l-371 371l-373 -371h-235z" />
<glyph unicode="_" horiz-adv-x="1024" d="M0 -279h1024v-204h-1024v204z" />
<glyph unicode="`" horiz-adv-x="1024" d="M451 1823h317l166 -371h-189z" />
<glyph unicode="a" horiz-adv-x="1284" d="M-338 0l705 850h403l-420 -553h291l215 688q0 1 1 3q3 13 3 22q0 20 -15 32.5t-40 12.5h-434l131 297h643q70 0 110.5 -37t40.5 -101q0 -17 -2 -32t-6 -29l-336 -1153h-1290z" />
<glyph unicode="b" horiz-adv-x="1223" d="M-184 0l389 850h602l51 125q3 5 4.5 12t1.5 14q0 28 -20 46t-51 18h-492l129 287h709q90 0 141 -40t51 -110q0 -18 -5.5 -39t-16.5 -45l-162 -356q-26 -60 -65 -83.5t-113 -23.5h-11q36 -23 53 -52.5t17 -67.5q0 -18 -6 -40.5t-16 -45.5l-115 -252q-50 -111 -125 -154 t-236 -43h-714zM332 293h217l82 185q3 8 4.5 14t1.5 12q0 27 -20.5 45t-51.5 18h-108z" />
<glyph unicode="c" horiz-adv-x="1139" d="M-100 147q0 20 5.5 41.5t16.5 44.5l418 922q50 112 122.5 154.5t237.5 42.5h377q91 0 142 -40t51 -110q0 -17 -6 -38.5t-17 -45.5l-28 -63h-435q-51 0 -85 -21.5t-52 -64.5l-51 -119l-211 -463q-4 -8 -6 -16t-2 -17q0 -25 19.5 -41t52.5 -16h456l-45 -100 q-50 -113 -122 -155t-238 -42h-408q-89 0 -140.5 39.5t-51.5 107.5z" />
<glyph unicode="d" d="M-184 0l387 850h387l-248 -553h107q54 0 84 19t53 67l264 582q4 8 6 16t2 16q0 26 -20.5 42t-53.5 16h-489l135 297h709q90 0 142 -40t52 -108q0 -17 -6 -38.5t-18 -47.5l-418 -921q-50 -112 -125 -154.5t-236 -42.5h-714z" />
<glyph unicode="e" horiz-adv-x="977" d="M-184 0l387 850h735l-135 -297h-344l-117 -256h344l-135 -297h-735zM295 1055l135 297h735l-135 -297h-735z" />
<glyph unicode="f" horiz-adv-x="944" d="M-184 0l387 850h735l-135 -297h-344l-252 -553h-391zM295 1055l135 297h735l-135 -297h-735z" />
<glyph unicode="g" d="M-100 147q0 20 5.5 41.5t16.5 44.5l418 922q51 111 125 154t235 43h439q90 0 141 -40t51 -110q0 -17 -5.5 -38.5t-16.5 -45.5l-29 -63h-496q-51 0 -84 -21t-53 -65l-262 -584q0 -1 -2 -6q-6 -18 -6 -27q0 -25 23 -40t63 -15q51 0 83.5 20.5t53.5 65.5l78 170h-115 l135 297h488l-295 -653q-50 -111 -125 -154t-236 -43h-438q-89 0 -140.5 39.5t-51.5 107.5z" />
<glyph unicode="h" d="M-184 0l614 1352h391l-227 -502h205l227 502h389l-614 -1352h-389l252 553h-205l-252 -553h-391z" />
<glyph unicode="i" horiz-adv-x="635" d="M-184 0l614 1352h391l-614 -1352h-391z" />
<glyph unicode="j" horiz-adv-x="739" d="M-287 0l135 297h105q50 0 84 21t53 65l440 969h392l-525 -1155q-49 -111 -124.5 -154t-235.5 -43h-324z" />
<glyph unicode="k" horiz-adv-x="1436" d="M-184 0l385 850h438q87 0 157.5 -53t123.5 -158l315 -639h-389l-203 438l-4 9q-50 106 -131 106h-49l-252 -553h-391zM295 1055l135 297h391l-143 -291l168 168q81 79 143 101t158 22h278l-135 -297h-995z" />
<glyph unicode="l" horiz-adv-x="905" d="M-184 0l614 1352h391l-479 -1055h365l-136 -297h-755z" />
<glyph unicode="m" horiz-adv-x="1817" d="M-182 0l383 850h391l-385 -850h-389zM297 1055l133 297h1294q90 0 141.5 -40t51.5 -110q0 -17 -6 -38.5t-17 -45.5l-508 -1118h-391l439 965q2 5 4 12.5t2 13.5q0 27 -20.5 45.5t-51.5 18.5h-1071zM412 0l383 850h385l-383 -850h-385z" />
<glyph unicode="n" d="M-184 0l387 850h389l-385 -850h-391zM297 1055l133 297h709q90 0 141 -40t51 -110q0 -17 -5.5 -38.5t-16.5 -45.5l-508 -1118h-389l438 965q3 7 4.5 15t1.5 15q0 29 -18.5 44.5t-53.5 15.5h-487z" />
<glyph unicode="o" d="M-100 147q0 17 6 38.5t18 47.5l416 922q51 111 125 154t235 43h439q90 0 142 -40t52 -108q0 -19 -5.5 -40.5t-16.5 -44.5l-420 -922q-50 -112 -125 -154.5t-236 -42.5h-438q-89 0 -140.5 39.5t-51.5 107.5zM377 354q0 -27 22.5 -42t63.5 -15t70.5 21t50.5 65l264 582 q5 12 6.5 18.5t1.5 11.5q0 27 -21 43.5t-57 16.5q-46 0 -78.5 -21.5t-52.5 -64.5l-262 -578q-4 -8 -6 -17t-2 -20z" />
<glyph unicode="p" horiz-adv-x="1204" d="M-184 0l389 850h596l49 115q3 7 4.5 15t1.5 15q0 27 -19.5 43.5t-52.5 16.5h-487l133 297h709q90 0 141 -40t51 -110q0 -18 -5.5 -39t-16.5 -45l-174 -383q-51 -110 -108.5 -146t-195.5 -36h-370l-254 -553h-391z" />
<glyph unicode="q" horiz-adv-x="1247" d="M-100 147q0 17 6 38.5t18 47.5l416 922q51 111 125 154t235 43h439q90 0 142 -40t52 -108q0 -18 -5.5 -40.5t-16.5 -45.5l-324 -712q-23 -51 -43.5 -73.5t-50.5 -35.5h170l-135 -297h-836q-89 0 -140.5 39.5t-51.5 107.5zM377 354q0 -27 22.5 -42t63.5 -15t70.5 21 t50.5 65l264 582q5 12 6.5 18.5t1.5 11.5q0 27 -21 43.5t-57 16.5q-46 0 -78.5 -21.5t-52.5 -64.5l-262 -578q-4 -8 -6 -17t-2 -20z" />
<glyph unicode="r" d="M-184 0l383 840h604l55 129q3 7 4.5 14.5t1.5 15.5q0 26 -19.5 43t-51.5 17h-496l133 293h709q90 0 141 -40t51 -110q0 -18 -5.5 -39t-16.5 -45l-207 -459q-27 -58 -67 -82t-111 -24h-13q35 -22 52.5 -52.5t17.5 -68.5q0 -18 -6 -40.5t-17 -45.5l-157 -346h-381l211 473 q3 6 4.5 13t1.5 14q0 26 -20.5 44.5t-51.5 18.5h-98l-260 -563h-391z" />
<glyph unicode="s" d="M-219 0l135 297h446q98 0 153.5 11t90.5 36q46 33 71 76.5t25 87.5q0 70 -114 106q-25 8 -40 13q-126 44 -179.5 112t-53.5 185q0 188 116 308t300 120h512l-137 -297h-291q-58 0 -91.5 -25.5t-33.5 -68.5q0 -62 150 -99q31 -8 47 -12q107 -28 167 -112.5t60 -207.5 q0 -92 -39 -183.5t-104 -156.5q-61 -58 -126.5 -96.5t-156.5 -68.5q-39 -12 -121 -18.5t-196 -6.5h-590z" />
<glyph unicode="t" horiz-adv-x="1006" d="M18 0l385 850h392l-385 -850h-392zM150 1055l135 297h1046l-135 -297h-1046z" />
<glyph unicode="u" d="M-100 147q0 20 5.5 41.5t16.5 44.5l508 1119h391l-432 -955q-5 -10 -7.5 -20.5t-2.5 -22.5q0 -28 21.5 -42.5t62.5 -14.5t72 21.5t51 64.5l440 969h389l-524 -1155q-50 -111 -125 -154t-236 -43h-438q-89 0 -140.5 39.5t-51.5 107.5z" />
<glyph unicode="v" horiz-adv-x="1229" d="M209 1352h371l20 -736l385 625q37 59 96 85t160 26h315l-135 -297h-35q-76 0 -125 -24.5t-85 -80.5l-631 -950h-205z" />
<glyph unicode="w" horiz-adv-x="1907" d="M209 1352h371l30 -713l430 713h207l64 -713l344 608q33 59 89.5 84t162.5 25h317l-135 -297h-35q-79 0 -130 -25.5t-81 -79.5l-536 -954h-220l-92 754l-424 -754h-217z" />
<glyph unicode="x" horiz-adv-x="1229" d="M-242 0l136 297h65q65 0 113 19.5t78 58.5l278 364l-203 613h361l94 -326l131 203q41 63 106.5 93t165.5 30h277l-135 -297h-35q-69 0 -116 -19.5t-75 -58.5l-196 -281l229 -696h-362l-127 395l-187 -250q-56 -75 -146 -110t-228 -35h-224z" />
<glyph unicode="y" d="M-184 0l135 297h498q51 0 83.5 20.5t53.5 65.5l35 74h-322q-90 0 -141.5 39t-51.5 108q1 20 6.5 41.5t16.5 44.5l301 662h391l-231 -502q-3 -6 -4.5 -15t-1.5 -22q0 -28 21 -43.5t61 -15.5h88l272 598h389l-524 -1155q-50 -112 -125 -154.5t-236 -42.5h-714z" />
<glyph unicode="z" horiz-adv-x="1057" d="M-285 0l86 188l881 867h-444l135 297h887l-39 -207l-869 -848h477l-135 -297h-979z" />
<glyph unicode="{" horiz-adv-x="1024" d="M158 426v209q7 0 21 -1t20 -1q120 0 171.5 58t51.5 196v250q0 143 23.5 201t80.5 92q47 25 114 37t167 12q12 0 37 -1t39 -1v-209q-9 0 -25 1t-22 1q-101 0 -136.5 -38.5t-35.5 -162.5v-240q0 -148 -45 -210t-162 -89q117 -27 162 -88t45 -209v-241q0 -123 35 -161 t137 -38q6 0 22 1t25 1v-209q-14 0 -39 -1t-37 -1q-100 0 -167 12t-114 37q-57 34 -80.5 91.5t-23.5 199.5v252q0 137 -51 194.5t-172 57.5q-6 0 -20 -1t-21 -1z" />
<glyph unicode="|" horiz-adv-x="1024" d="M410 -483v2048h206v-2048h-206z" />
<glyph unicode="}" horiz-adv-x="1024" d="M143 -205q9 0 25 -1t22 -1q101 0 136.5 38.5t35.5 160.5v239q0 150 45 211.5t162 87.5q-117 27 -162 89t-45 210v242q0 122 -35.5 160.5t-136.5 38.5q-6 0 -22 -1t-25 -1v209h68q110 0 177 -12t112 -38q57 -32 80.5 -91.5t23.5 -198.5v-252q0 -137 51 -194.5t172 -57.5 q6 0 20 1t21 1v-209h-37q-125 0 -176 -56t-51 -194v-252q0 -143 -23.5 -201t-80.5 -90q-47 -25 -114 -37t-167 -12q-12 0 -37 1t-39 1v209z" />
<glyph unicode="~" horiz-adv-x="1706" d="M178 418v221q107 72 204 107.5t183 35.5q117 0 291 -58l4 -1q18 -6 55 -19q155 -55 240 -55t175 37t200 117v-221q-104 -71 -196.5 -104.5t-182.5 -33.5q-46 0 -92 8t-92 23q-24 8 -71 25q-219 75 -333 75q-85 0 -177.5 -37.5t-207.5 -119.5z" />
<glyph unicode="&#xa1;" horiz-adv-x="612" d="M-184 0l424 928h366l-424 -928h-366zM274 1014l156 338h367l-156 -338h-367z" />
<glyph unicode="&#xa2;" horiz-adv-x="1151" d="M-100 147q0 20 5.5 41.5t16.5 44.5l332 732q47 105 120.5 150.5t196.5 45.5h43l72 160h268l-71 -160h108q91 0 142 -39.5t51 -109.5q0 -18 -6 -39.5t-17 -44.5l-28 -64h-435q-51 0 -84 -20.5t-53 -65.5l-176 -391q-4 -8 -6 -16t-2 -17q0 -25 19.5 -41t52.5 -16h456 l-45 -100q-50 -112 -123 -154.5t-278 -42.5h-4l-74 -160h-268l71 160h-92q-89 0 -140.5 39.5t-51.5 107.5z" />
<glyph unicode="&#xa3;" horiz-adv-x="1180" d="M-100 0l258 567h-187l119 256h186l148 332q49 111 123.5 154t236.5 43h240q90 0 141.5 -40t51.5 -110q0 -17 -6 -38.5t-17 -45.5l-29 -63h-395l-108 -232h268l-117 -256h-266l-121 -270h557l-135 -297h-948z" />
<glyph unicode="&#xa4;" d="M-43 457l68 147h170l63 144h-168l68 147h166l120 260q52 112 123 154.5t238 42.5h377q90 0 141 -40t51 -110q0 -14 -6 -35.5t-18 -48.5l-27 -63h-434q-51 0 -84 -21t-53 -65l-33 -74h334l-68 -147h-332l-63 -144h328l-68 -147h-326l-34 -69q-4 -7 -6.5 -15.5t-2.5 -16.5 q0 -27 19.5 -43t52.5 -16h457l-45 -100q-50 -112 -121.5 -154.5t-239.5 -42.5h-407q-90 0 -141.5 40t-51.5 107q0 18 6 40.5t17 45.5l102 224h-172z" />
<glyph unicode="&#xa5;" horiz-adv-x="1331" d="M16 453l66 147h383l-41 141h-318l68 150h209l-133 461h352l109 -527l385 527h387l-387 -461h211l-66 -150h-266l-121 -141h346l-67 -147h-367l-207 -453h-336l201 453h-408z" />
<glyph unicode="&#xa6;" horiz-adv-x="1024" d="M410 -350v758h206v-758h-206zM410 674v758h206v-758h-206z" />
<glyph unicode="&#xa7;" horiz-adv-x="1010" d="M-94 -100l112 219h281q73 0 96 16t23 58q0 19 -109 70q-23 11 -37 18q-19 9 -53 25q-205 94 -205 196q0 21 11 55.5t39 96.5l2 5q56 132 92 175q19 22 53 32.5t90 10.5h35q-41 30 -58.5 59t-17.5 68q0 17 2 30.5t6 26.5q23 73 47.5 130t40.5 77q38 46 95 65t188 19h346 l-117 -219h-213q-70 0 -94 -16t-24 -56q0 -24 101 -68l56 -24l14 -7q232 -107 232 -204q0 -11 -1.5 -22t-4.5 -21q-24 -79 -52.5 -146.5t-52.5 -103.5q-34 -55 -68.5 -73.5t-94.5 -18.5q-18 0 -27.5 0.5t-17.5 1.5q43 -35 58 -61.5t15 -63.5q0 -17 -2 -31t-6 -26 q-24 -74 -48.5 -131t-39.5 -76q-39 -48 -97 -67t-186 -19h-409zM326 623q0 -30 14.5 -51.5t44.5 -34.5l176 -84l53 118q8 19 12.5 36.5t4.5 31.5q0 28 -14.5 49t-45.5 35l-176 86l-53 -119q-8 -16 -12 -33.5t-4 -33.5z" />
<glyph unicode="&#xa8;" horiz-adv-x="1024" d="M526 1475l144 323h272l-143 -323h-273zM918 1475l143 323h272l-143 -323h-272z" />
<glyph unicode="&#xa9;" horiz-adv-x="1706" d="M111 733q0 149 56 284.5t163 244.5q105 106 238 161.5t284 55.5q152 0 287.5 -56t242.5 -163q105 -105 160 -240.5t55 -286.5q0 -152 -54.5 -284t-160.5 -236q-111 -108 -248 -165.5t-282 -57.5q-147 0 -280.5 56.5t-241.5 164.5q-107 106 -163 240.5t-56 281.5zM233 735 q0 -125 47 -237t136 -201q88 -88 201 -135t237 -47t237.5 47t204.5 137q88 86 133.5 197t45.5 239q0 126 -46.5 238.5t-134.5 200.5q-89 89 -201 135.5t-239 46.5q-128 0 -239.5 -46t-198.5 -134q-89 -90 -136 -203.5t-47 -237.5zM453 729q0 206 109.5 328.5t293.5 122.5 q152 0 250.5 -78t105.5 -205h-188q-8 70 -53 108.5t-119 38.5q-91 0 -143 -81.5t-52 -227.5q0 -147 52 -224t151 -77q73 0 117 42t53 119l193 1q-8 -139 -109 -223t-260 -84q-186 0 -293.5 118t-107.5 322z" />
<glyph unicode="&#xaa;" horiz-adv-x="848" d="M-223 541l465 510h266l-277 -332h193l141 413q1 2 1.5 5t0.5 10q0 13 -9.5 20t-27.5 7h-286l88 178h424q45 0 72.5 -22.5t27.5 -59.5q0 -9 -1.5 -18.5t-4.5 -18.5l-221 -692h-852z" />
<glyph unicode="&#xab;" horiz-adv-x="1219" d="M35 588l438 477l199 -203l-305 -321l157 -365l-268 -102zM518 549l438 473l199 -201l-305 -319l158 -365l-269 -102z" />
<glyph unicode="&#xac;" horiz-adv-x="1706" d="M254 668v196h1198v-502h-199v306h-999z" />
<glyph unicode="&#xad;" horiz-adv-x="797" d="M29 532l145 314h592l-143 -314h-594z" />
<glyph unicode="&#xae;" horiz-adv-x="1706" d="M111 733q0 102 27 198.5t81 188.5q101 170 267 264.5t366 94.5q154 0 290.5 -57.5t243.5 -166.5q103 -104 157 -238t54 -284q0 -152 -56 -287.5t-163 -238.5q-107 -105 -243.5 -161t-282.5 -56q-149 0 -285 58t-243 167q-104 105 -158.5 238.5t-54.5 279.5zM233 735 q0 -124 46 -235.5t133 -198.5q89 -91 203 -139.5t237 -48.5q120 0 233.5 47t206.5 135q87 84 135 196t48 232q0 133 -44.5 245t-132.5 201q-90 93 -202.5 140t-241.5 47q-127 0 -236 -44.5t-196 -131.5q-91 -91 -140 -206.5t-49 -238.5zM545 336v825h323q176 0 264.5 -59.5 t88.5 -177.5q0 -82 -48 -140t-133 -79l185 -369h-224l-157 338h-99v-338h-200zM745 795h99q88 0 129 28t41 88q0 63 -44 93t-136 30h-89v-239z" />
<glyph unicode="&#xaf;" horiz-adv-x="1024" d="M578 1528l96 207h614l-98 -207h-612z" />
<glyph unicode="&#xb0;" horiz-adv-x="674" d="M35 1159q0 127 88.5 216t214.5 89t214.5 -89.5t88.5 -215.5q0 -125 -89 -214t-216 -89q-126 0 -213.5 88t-87.5 215zM162 1161q0 -74 51 -125t125 -51q72 0 123 52t51 124t-51 123t-123 51q-73 0 -124.5 -51t-51.5 -123z" />
<glyph unicode="&#xb1;" horiz-adv-x="1706" d="M254 -2v199h1198v-199h-1198zM254 698v199h498v326h202v-326h498v-199h-498v-325h-202v325h-498z" />
<glyph unicode="&#xb2;" horiz-adv-x="733" d="M-162 541l49 100q24 49 63.5 89.5t108.5 82.5l332 197q19 11 30 20.5t17 20.5h264q-18 -50 -59 -90t-106 -72l-340 -170h405l-90 -178h-674zM135 1174l90 178h441q57 0 91 -22.5t34 -59.5q0 -35 -9.5 -65.5t-15.5 -30.5h-631z" />
<glyph unicode="&#xb3;" horiz-adv-x="760" d="M-141 541l92 178h301q34 0 55.5 12t36.5 39l23 49q0 2 2 6q4 9 4 15q0 14 -15.5 23t-42.5 9h-145l92 179h164q30 0 50 11t30 34l10 24q3 8 3.5 11.5t0.5 7.5q0 16 -14 25.5t-39 9.5h-313l92 178h463q59 0 94 -24.5t35 -65.5q0 -9 -4 -21t-13 -29l-92 -184 q-16 -35 -43 -49t-76 -14h-6q23 -12 34 -30t11 -42q0 -12 -3.5 -24.5t-10.5 -28.5l-90 -181q-34 -67 -83.5 -92.5t-154.5 -25.5h-448z" />
<glyph unicode="&#xb4;" horiz-adv-x="1024" d="M717 1452l231 371h361l-391 -371h-201z" />
<glyph unicode="&#xb5;" horiz-adv-x="1249" d="M-63 -438l268 1530h289l-76 -435q-15 -80 -23 -151.5t-8 -116.5q0 -93 42 -138.5t128 -45.5q100 0 155.5 82t92.5 291l90 514h289l-193 -1092h-268l18 117q-42 -78 -93.5 -114t-121.5 -36q-67 0 -119 29.5t-94 91.5l-90 -526h-286z" />
<glyph unicode="&#xb6;" horiz-adv-x="1024" d="M41 1130q0 158 107 253.5t284 95.5h551v-111h-113v-1368h-151v1368h-158v-1368h-153v784q-167 6 -267 101t-100 245z" />
<glyph unicode="&#xb7;" horiz-adv-x="616" d="M127 676q0 72 53 124t125 52q73 0 125.5 -52t52.5 -124t-53 -125t-125 -53t-125 53t-53 125z" />
<glyph unicode="&#xb8;" horiz-adv-x="1024" d="M-104 -455l69 136q61 -24 114.5 -37t90.5 -13q45 0 73.5 24.5t28.5 61.5q0 42 -41 62t-125 20q-6 0 -22.5 -1t-26.5 -1l95 203h122l-43 -92h9q120 0 180.5 -43.5t60.5 -130.5q0 -113 -82.5 -182.5t-218.5 -69.5q-73 0 -144 15.5t-140 47.5z" />
<glyph unicode="&#xb9;" horiz-adv-x="514" d="M-55 541l289 580q2 3 4 9t2 11q0 14 -13.5 23.5t-36.5 9.5h-65l88 178h395l-405 -811h-258z" />
<glyph unicode="&#xba;" horiz-adv-x="813" d="M-66 629q0 12 4.5 24.5t12.5 26.5l274 553q33 67 82 93t156 26h289q60 0 94.5 -24t34.5 -64q0 -13 -4 -25.5t-13 -26.5l-276 -553q-34 -67 -83.5 -92.5t-154.5 -25.5h-289q-59 0 -93 23.5t-34 64.5zM248 754q0 -16 15.5 -25.5t41.5 -9.5q28 0 48 12.5t32 38.5l174 350 q3 5 4.5 9.5t1.5 9.5q0 16 -13.5 25.5t-37.5 9.5q-31 0 -52.5 -13t-33.5 -39l-174 -346q-3 -6 -4.5 -11.5t-1.5 -10.5z" />
<glyph unicode="&#xbb;" horiz-adv-x="1219" d="M-16 276l305 322l-158 365l268 102l222 -514l-439 -477zM467 238l305 319l-158 365l269 100l221 -512l-438 -475z" />
<glyph unicode="&#xbc;" horiz-adv-x="1567" d="M-53 594l276 540q3 5 4.5 10t1.5 11q0 13 -13 21t-34 8h-61l84 168h377l-387 -758h-248zM53 0l938 1352h277l-940 -1352h-275zM745 166l80 158l398 350q52 46 105 65t128 19h217l-86 -168h-233l-307 -281h153l84 166h246l-244 -475h-244l84 166h-381z" />
<glyph unicode="&#xbd;" horiz-adv-x="1532" d="M-53 594l276 540q3 5 4.5 10t1.5 11q0 13 -13 21t-34 8h-61l84 168h377l-387 -758h-248zM53 0l938 1352h277l-940 -1352h-275zM678 0l47 92q22 47 60.5 85t103.5 77l315 184q23 14 32 22t14 15h253q-18 -45 -56.5 -81.5t-103.5 -69.5l-325 -158h387l-84 -166h-643z M961 590l86 168h419q55 0 88 -21.5t33 -56.5q0 -32 -10 -61t-14 -29h-602z" />
<glyph unicode="&#xbe;" horiz-adv-x="1802" d="M-135 594l88 166h289q32 0 52 11.5t34 37.5l22 45q3 8 3.5 11.5t0.5 6.5q0 15 -14 23t-39 8h-139l88 166h156q28 0 48 11.5t30 32.5l10 22l3 10.5t1 5.5q0 15 -13.5 24t-38.5 9h-301l91 168h440q57 0 90 -22.5t33 -61.5q0 -9 -4.5 -21t-12.5 -26l-86 -172 q-16 -33 -41 -46.5t-71 -13.5h-6q21 -13 32 -30t11 -37q-1 -11 -4.5 -23t-10.5 -25l-86 -169q-32 -63 -79 -87t-148 -24h-428zM289 0l938 1352h276l-940 -1352h-274zM981 166l80 158l397 350q52 46 105.5 65t128.5 19h217l-86 -168h-234l-307 -281h154l84 166h245l-243 -475 h-244l84 166h-381z" />
<glyph unicode="&#xbf;" horiz-adv-x="963" d="M-98 137q0 36 9 74t28 80l118 266q36 80 73 118t99 68l152 74q42 20 71.5 46.5t49.5 62.5h393l-25 -56q-23 -53 -82 -106t-151 -105l-164 -90q-30 -16 -62.5 -53.5t-48.5 -73.5l-24 -55q-6 -13 -9 -27t-3 -26q0 -17 15.5 -27t41.5 -10h371l-138 -297h-524 q-87 0 -138.5 37.5t-51.5 99.5zM543 1014l155 338h389l-155 -338h-389z" />
<glyph unicode="&#xc0;" horiz-adv-x="1284" d="M-338 0l705 850h403l-420 -553h291l215 688q0 1 1 3q3 13 3 22q0 20 -15 32.5t-40 12.5h-434l131 297h643q70 0 110.5 -37t40.5 -101q0 -17 -2 -32t-6 -29l-336 -1153h-1290zM582 1823h317l166 -371h-189z" />
<glyph unicode="&#xc1;" horiz-adv-x="1284" d="M-338 0l705 850h403l-420 -553h291l215 688q0 1 1 3q3 13 3 22q0 20 -15 32.5t-40 12.5h-434l131 297h643q70 0 110.5 -37t40.5 -101q0 -17 -2 -32t-6 -29l-336 -1153h-1290zM848 1452l231 371h361l-391 -371h-201z" />
<glyph unicode="&#xc2;" horiz-adv-x="1284" d="M-338 0l705 850h403l-420 -553h291l215 688q0 1 1 3q3 13 3 22q0 20 -15 32.5t-40 12.5h-434l131 297h643q70 0 110.5 -37t40.5 -101q0 -17 -2 -32t-6 -29l-336 -1153h-1290zM639 1452l342 371h311l45 -371h-164l-90 180l-258 -180h-186z" />
<glyph unicode="&#xc3;" horiz-adv-x="1284" d="M-338 0l705 850h403l-420 -553h291l215 688q0 1 1 3q3 13 3 22q0 20 -15 32.5t-40 12.5h-434l131 297h643q70 0 110.5 -37t40.5 -101q0 -17 -2 -32t-6 -29l-336 -1153h-1290zM659 1464q57 168 121.5 239t157.5 71q28 0 53 -5.5t51 -17.5l78 -31q14 -6 30 -9t34 -3 q41 0 71 25.5t43 72.5h136q-45 -151 -113.5 -225t-163.5 -74q-24 0 -47.5 5t-44.5 14l-75 32q-12 5 -26.5 8t-29.5 3q-43 0 -77 -25.5t-62 -79.5h-136z" />
<glyph unicode="&#xc4;" horiz-adv-x="1284" d="M-338 0l705 850h403l-420 -553h291l215 688q0 1 1 3q3 13 3 22q0 20 -15 32.5t-40 12.5h-434l131 297h643q70 0 110.5 -37t40.5 -101q0 -17 -2 -32t-6 -29l-336 -1153h-1290zM657 1475l144 323h272l-143 -323h-273zM1049 1475l143 323h272l-143 -323h-272z" />
<glyph unicode="&#xc5;" horiz-adv-x="1284" d="M-338 0l705 850h403l-420 -553h291l213 686q4 10 5 15t1 12q0 20 -15 32.5t-40 12.5h-434l131 297h643q70 0 110.5 -37t40.5 -101q0 -17 -2 -32t-6 -29l-336 -1153h-1290zM666 1712q0 126 85.5 212.5t211.5 86.5q125 0 212 -87t87 -212q0 -126 -86.5 -211.5t-212.5 -85.5 t-211.5 85.5t-85.5 211.5zM856 1710q0 -45 31.5 -75.5t77.5 -30.5q44 0 75 31t31 75q0 46 -31 78.5t-75 32.5q-47 0 -78 -32t-31 -79z" />
<glyph unicode="&#xc6;" horiz-adv-x="1671" d="M-334 0l707 850h401l-420 -553h293l346 758h-442l133 297h1176l-138 -297h-364l-94 -205h368l-135 -297h-369l-116 -256h368l-135 -297h-1579z" />
<glyph unicode="&#xc7;" horiz-adv-x="1139" d="M-100 147q0 20 5.5 41.5t16.5 44.5l418 922q50 112 122.5 154.5t237.5 42.5h377q91 0 142 -40t51 -110q0 -17 -6 -38.5t-17 -45.5l-28 -63h-435q-51 0 -85 -21.5t-52 -64.5l-51 -119l-211 -463q-4 -8 -6 -16t-2 -17q0 -25 19.5 -41t52.5 -16h456l-45 -100 q-50 -113 -122 -155t-238 -42h-408q-89 0 -140.5 39.5t-51.5 107.5zM-36 -455l69 136q61 -24 114.5 -37t90.5 -13q45 0 73.5 24.5t28.5 61.5q0 42 -41 62t-125 20q-6 0 -22.5 -1t-26.5 -1l95 203h122l-43 -92h9q120 0 180.5 -43.5t60.5 -130.5q0 -113 -82.5 -182.5 t-218.5 -69.5q-73 0 -144 15.5t-140 47.5z" />
<glyph unicode="&#xc8;" horiz-adv-x="977" d="M-184 0l387 850h735l-135 -297h-344l-117 -256h344l-135 -297h-735zM295 1055l135 297h735l-135 -297h-735zM428 1823h317l166 -371h-189z" />
<glyph unicode="&#xc9;" horiz-adv-x="977" d="M-184 0l387 850h735l-135 -297h-344l-117 -256h344l-135 -297h-735zM295 1055l135 297h735l-135 -297h-735zM694 1452l231 371h361l-391 -371h-201z" />
<glyph unicode="&#xca;" horiz-adv-x="977" d="M-184 0l387 850h735l-135 -297h-344l-117 -256h344l-135 -297h-735zM295 1055l135 297h735l-135 -297h-735zM485 1452l342 371h311l45 -371h-164l-90 180l-258 -180h-186z" />
<glyph unicode="&#xcb;" horiz-adv-x="977" d="M-184 0l387 850h735l-135 -297h-344l-117 -256h344l-135 -297h-735zM295 1055l135 297h735l-135 -297h-735zM503 1475l144 323h272l-143 -323h-273zM895 1475l143 323h272l-143 -323h-272z" />
<glyph unicode="&#xcc;" horiz-adv-x="635" d="M-184 0l614 1352h391l-614 -1352h-391zM256 1823h317l166 -371h-189z" />
<glyph unicode="&#xcd;" horiz-adv-x="635" d="M-184 0l614 1352h391l-614 -1352h-391zM522 1452l231 371h361l-391 -371h-201z" />
<glyph unicode="&#xce;" horiz-adv-x="635" d="M-184 0l614 1352h391l-614 -1352h-391zM313 1452l342 371h311l45 -371h-164l-90 180l-258 -180h-186z" />
<glyph unicode="&#xcf;" horiz-adv-x="635" d="M-184 0l614 1352h391l-614 -1352h-391zM331 1475l144 323h272l-143 -323h-273zM723 1475l143 323h272l-143 -323h-272z" />
<glyph unicode="&#xd0;" d="M-184 0l262 582h-133l121 268h632l-123 -268h-106l-127 -285h107q54 0 84 19t53 67l264 582q4 8 6 16t2 16q0 26 -20.5 42t-53.5 16h-489l135 297h709q90 0 142 -40t52 -108q0 -17 -6 -38.5t-18 -47.5l-418 -921q-50 -112 -125 -154.5t-236 -42.5h-714z" />
<glyph unicode="&#xd1;" d="M-184 0l387 850h389l-385 -850h-391zM297 1055l133 297h709q90 0 141 -40t51 -110q0 -17 -5.5 -38.5t-16.5 -45.5l-508 -1118h-389l438 965q3 7 4.5 15t1.5 15q0 29 -18.5 44.5t-53.5 15.5h-487zM565 1464q57 168 121.5 239t157.5 71q28 0 53 -5.5t51 -17.5l78 -31 q14 -6 30 -9t34 -3q41 0 71 25.5t43 72.5h136q-45 -151 -113.5 -225t-163.5 -74q-24 0 -47.5 5t-44.5 14l-75 32q-12 5 -26.5 8t-29.5 3q-43 0 -77 -25.5t-62 -79.5h-136z" />
<glyph unicode="&#xd2;" d="M-100 147q0 17 6 38.5t18 47.5l416 922q51 111 125 154t235 43h439q90 0 142 -40t52 -108q0 -19 -5.5 -40.5t-16.5 -44.5l-420 -922q-50 -112 -125 -154.5t-236 -42.5h-438q-89 0 -140.5 39.5t-51.5 107.5zM377 354q0 -27 22.5 -42t63.5 -15t70.5 21t50.5 65l264 582 q5 12 6.5 18.5t1.5 11.5q0 27 -21 43.5t-57 16.5q-46 0 -78.5 -21.5t-52.5 -64.5l-262 -578q-4 -8 -6 -17t-2 -20zM555 1823h317l166 -371h-189z" />
<glyph unicode="&#xd3;" d="M-100 147q0 17 6 38.5t18 47.5l416 922q51 111 125 154t235 43h439q90 0 142 -40t52 -108q0 -19 -5.5 -40.5t-16.5 -44.5l-420 -922q-50 -112 -125 -154.5t-236 -42.5h-438q-89 0 -140.5 39.5t-51.5 107.5zM377 354q0 -27 22.5 -42t63.5 -15t70.5 21t50.5 65l264 582 q5 12 6.5 18.5t1.5 11.5q0 27 -21 43.5t-57 16.5q-46 0 -78.5 -21.5t-52.5 -64.5l-262 -578q-4 -8 -6 -17t-2 -20zM821 1452l231 371h361l-391 -371h-201z" />
<glyph unicode="&#xd4;" d="M-100 147q0 17 6 38.5t18 47.5l416 922q51 111 125 154t235 43h439q90 0 142 -40t52 -108q0 -19 -5.5 -40.5t-16.5 -44.5l-420 -922q-50 -112 -125 -154.5t-236 -42.5h-438q-89 0 -140.5 39.5t-51.5 107.5zM377 354q0 -27 22.5 -42t63.5 -15t70.5 21t50.5 65l264 582 q5 12 6.5 18.5t1.5 11.5q0 27 -21 43.5t-57 16.5q-46 0 -78.5 -21.5t-52.5 -64.5l-262 -578q-4 -8 -6 -17t-2 -20zM612 1452l342 371h311l45 -371h-164l-90 180l-258 -180h-186z" />
<glyph unicode="&#xd5;" d="M-100 147q0 17 6 38.5t18 47.5l416 922q51 111 125 154t235 43h439q90 0 142 -40t52 -108q0 -19 -5.5 -40.5t-16.5 -44.5l-420 -922q-50 -112 -125 -154.5t-236 -42.5h-438q-89 0 -140.5 39.5t-51.5 107.5zM377 354q0 -27 22.5 -42t63.5 -15t70.5 21t50.5 65l264 582 q5 12 6.5 18.5t1.5 11.5q0 27 -21 43.5t-57 16.5q-46 0 -78.5 -21.5t-52.5 -64.5l-262 -578q-4 -8 -6 -17t-2 -20zM632 1464q57 168 121.5 239t157.5 71q28 0 53 -5.5t51 -17.5l78 -31q14 -6 30 -9t34 -3q41 0 71 25.5t43 72.5h136q-45 -151 -113.5 -225t-163.5 -74 q-24 0 -47.5 5t-44.5 14l-75 32q-12 5 -26.5 8t-29.5 3q-43 0 -77 -25.5t-62 -79.5h-136z" />
<glyph unicode="&#xd6;" d="M-100 147q0 17 6 38.5t18 47.5l416 922q51 111 125 154t235 43h439q90 0 142 -40t52 -108q0 -19 -5.5 -40.5t-16.5 -44.5l-420 -922q-50 -112 -125 -154.5t-236 -42.5h-438q-89 0 -140.5 39.5t-51.5 107.5zM377 354q0 -27 22.5 -42t63.5 -15t70.5 21t50.5 65l264 582 q5 12 6.5 18.5t1.5 11.5q0 27 -21 43.5t-57 16.5q-46 0 -78.5 -21.5t-52.5 -64.5l-262 -578q-4 -8 -6 -17t-2 -20zM630 1475l144 323h272l-143 -323h-273zM1022 1475l143 323h272l-143 -323h-272z" />
<glyph unicode="&#xd7;" horiz-adv-x="1389" d="M123 272l395 396l-395 397l184 182l395 -397l398 397l184 -182l-399 -397l399 -396l-184 -184l-398 395l-395 -395z" />
<glyph unicode="&#xd8;" d="M-281 68l261 217v10q0 31 8 64t30 83l322 713q49 111 123.5 154t236.5 43h314q33 0 61.5 -7.5t52.5 -21.5l191 154l178 -207l-231 -185v-8q0 -28 -8.5 -60t-32.5 -89l-334 -731q-50 -112 -125 -154.5t-236 -42.5h-311q-33 0 -61.5 7t-53.5 22l-206 -170zM379 354 q0 -27 22.5 -42t63.5 -15t71 21t50 65l264 582q5 12 6.5 18.5t1.5 11.5q0 28 -23 44t-63 16q-42 0 -74 -22.5t-51 -63.5l-260 -578q-4 -8 -6 -17t-2 -20z" />
<glyph unicode="&#xd9;" d="M-100 147q0 20 5.5 41.5t16.5 44.5l508 1119h391l-432 -955q-5 -10 -7.5 -20.5t-2.5 -22.5q0 -28 21.5 -42.5t62.5 -14.5t72 21.5t51 64.5l440 969h389l-524 -1155q-50 -111 -125 -154t-236 -43h-438q-89 0 -140.5 39.5t-51.5 107.5zM537 1823h317l166 -371h-189z" />
<glyph unicode="&#xda;" d="M-100 147q0 20 5.5 41.5t16.5 44.5l508 1119h391l-432 -955q-5 -10 -7.5 -20.5t-2.5 -22.5q0 -28 21.5 -42.5t62.5 -14.5t72 21.5t51 64.5l440 969h389l-524 -1155q-50 -111 -125 -154t-236 -43h-438q-89 0 -140.5 39.5t-51.5 107.5zM803 1452l231 371h361l-391 -371 h-201z" />
<glyph unicode="&#xdb;" d="M-100 147q0 20 5.5 41.5t16.5 44.5l508 1119h391l-432 -955q-5 -10 -7.5 -20.5t-2.5 -22.5q0 -28 21.5 -42.5t62.5 -14.5t72 21.5t51 64.5l440 969h389l-524 -1155q-50 -111 -125 -154t-236 -43h-438q-89 0 -140.5 39.5t-51.5 107.5zM594 1452l342 371h311l45 -371h-164 l-90 180l-258 -180h-186z" />
<glyph unicode="&#xdc;" d="M-100 147q0 20 5.5 41.5t16.5 44.5l508 1119h391l-432 -955q-5 -10 -7.5 -20.5t-2.5 -22.5q0 -28 21.5 -42.5t62.5 -14.5t72 21.5t51 64.5l440 969h389l-524 -1155q-50 -111 -125 -154t-236 -43h-438q-89 0 -140.5 39.5t-51.5 107.5zM612 1475l144 323h272l-143 -323 h-273zM1004 1475l143 323h272l-143 -323h-272z" />
<glyph unicode="&#xdd;" d="M-184 0l135 297h498q51 0 83.5 20.5t53.5 65.5l35 74h-322q-90 0 -141.5 39t-51.5 108q1 20 6.5 41.5t16.5 44.5l301 662h391l-231 -502q-3 -6 -4.5 -15t-1.5 -22q0 -28 21 -43.5t61 -15.5h88l272 598h389l-524 -1155q-50 -112 -125 -154.5t-236 -42.5h-714zM821 1452 l231 371h361l-391 -371h-201z" />
<glyph unicode="&#xde;" horiz-adv-x="1204" d="M-184 0l614 1352h395l-92 -203h316q90 0 141 -39.5t51 -108.5q0 -18 -5.5 -39.5t-16.5 -45.5l-218 -480q-48 -109 -106 -145.5t-197 -36.5h-374l-117 -254h-391zM459 551h207l92 211q3 8 4.5 15.5t1.5 15.5q0 26 -20 42.5t-52 16.5h-94z" />
<glyph unicode="&#xdf;" horiz-adv-x="2466" d="M-219 0l135 297h446q98 0 153.5 11t90.5 36q46 33 71 76.5t25 87.5q0 70 -114 106q-25 8 -40 13q-126 44 -179.5 112t-53.5 185q0 188 116 308t300 120h512l-137 -297h-291q-58 0 -91.5 -25.5t-33.5 -68.5q0 -62 150 -99q31 -8 47 -12q107 -28 167 -112.5t60 -207.5 q0 -92 -39 -183.5t-104 -156.5q-61 -58 -126.5 -96.5t-156.5 -68.5q-39 -12 -121 -18.5t-196 -6.5h-590zM1014 0l135 297h446q98 0 153.5 11t90.5 36q46 33 71 76.5t25 87.5q0 70 -114 106q-25 8 -40 13q-126 44 -179.5 112t-53.5 185q0 188 116 308t300 120h512l-137 -297 h-291q-58 0 -91.5 -25.5t-33.5 -68.5q0 -62 150 -99q31 -8 47 -12q107 -28 167 -112.5t60 -207.5q0 -92 -39 -183.5t-104 -156.5q-61 -58 -126.5 -96.5t-156.5 -68.5q-39 -12 -121 -18.5t-196 -6.5h-590z" />
<glyph unicode="&#xe0;" horiz-adv-x="1284" d="M-338 0l705 850h403l-420 -553h291l215 688q0 1 1 3q3 13 3 22q0 20 -15 32.5t-40 12.5h-434l131 297h643q70 0 110.5 -37t40.5 -101q0 -17 -2 -32t-6 -29l-336 -1153h-1290zM582 1823h317l166 -371h-189z" />
<glyph unicode="&#xe1;" horiz-adv-x="1284" d="M-338 0l705 850h403l-420 -553h291l215 688q0 1 1 3q3 13 3 22q0 20 -15 32.5t-40 12.5h-434l131 297h643q70 0 110.5 -37t40.5 -101q0 -17 -2 -32t-6 -29l-336 -1153h-1290zM848 1452l231 371h361l-391 -371h-201z" />
<glyph unicode="&#xe2;" horiz-adv-x="1284" d="M-338 0l705 850h403l-420 -553h291l215 688q0 1 1 3q3 13 3 22q0 20 -15 32.5t-40 12.5h-434l131 297h643q70 0 110.5 -37t40.5 -101q0 -17 -2 -32t-6 -29l-336 -1153h-1290zM639 1452l342 371h311l45 -371h-164l-90 180l-258 -180h-186z" />
<glyph unicode="&#xe3;" horiz-adv-x="1284" d="M-338 0l705 850h403l-420 -553h291l215 688q0 1 1 3q3 13 3 22q0 20 -15 32.5t-40 12.5h-434l131 297h643q70 0 110.5 -37t40.5 -101q0 -17 -2 -32t-6 -29l-336 -1153h-1290zM659 1464q57 168 121.5 239t157.5 71q28 0 53 -5.5t51 -17.5l78 -31q14 -6 30 -9t34 -3 q41 0 71 25.5t43 72.5h136q-45 -151 -113.5 -225t-163.5 -74q-24 0 -47.5 5t-44.5 14l-75 32q-12 5 -26.5 8t-29.5 3q-43 0 -77 -25.5t-62 -79.5h-136z" />
<glyph unicode="&#xe4;" horiz-adv-x="1284" d="M-338 0l705 850h403l-420 -553h291l215 688q0 1 1 3q3 13 3 22q0 20 -15 32.5t-40 12.5h-434l131 297h643q70 0 110.5 -37t40.5 -101q0 -17 -2 -32t-6 -29l-336 -1153h-1290zM657 1475l144 323h272l-143 -323h-273zM1049 1475l143 323h272l-143 -323h-272z" />
<glyph unicode="&#xe5;" horiz-adv-x="1284" d="M-338 0l705 850h403l-420 -553h291l213 686q4 10 5 15t1 12q0 20 -15 32.5t-40 12.5h-434l131 297h643q70 0 110.5 -37t40.5 -101q0 -17 -2 -32t-6 -29l-336 -1153h-1290zM666 1712q0 126 85.5 212.5t211.5 86.5q125 0 212 -87t87 -212q0 -126 -86.5 -211.5t-212.5 -85.5 t-211.5 85.5t-85.5 211.5zM856 1710q0 -45 31.5 -75.5t77.5 -30.5q44 0 75 31t31 75q0 46 -31 78.5t-75 32.5q-47 0 -78 -32t-31 -79z" />
<glyph unicode="&#xe6;" horiz-adv-x="1671" d="M-334 0l707 850h401l-420 -553h293l346 758h-442l133 297h1176l-138 -297h-364l-94 -205h368l-135 -297h-369l-116 -256h368l-135 -297h-1579z" />
<glyph unicode="&#xe7;" horiz-adv-x="1139" d="M-100 147q0 20 5.5 41.5t16.5 44.5l418 922q50 112 122.5 154.5t237.5 42.5h377q91 0 142 -40t51 -110q0 -17 -6 -38.5t-17 -45.5l-28 -63h-435q-51 0 -85 -21.5t-52 -64.5l-51 -119l-211 -463q-4 -8 -6 -16t-2 -17q0 -25 19.5 -41t52.5 -16h456l-45 -100 q-50 -113 -122 -155t-238 -42h-408q-89 0 -140.5 39.5t-51.5 107.5zM-36 -455l69 136q61 -24 114.5 -37t90.5 -13q45 0 73.5 24.5t28.5 61.5q0 42 -41 62t-125 20q-6 0 -22.5 -1t-26.5 -1l95 203h122l-43 -92h9q120 0 180.5 -43.5t60.5 -130.5q0 -113 -82.5 -182.5 t-218.5 -69.5q-73 0 -144 15.5t-140 47.5z" />
<glyph unicode="&#xe8;" horiz-adv-x="977" d="M-184 0l387 850h735l-135 -297h-344l-117 -256h344l-135 -297h-735zM295 1055l135 297h735l-135 -297h-735zM428 1823h317l166 -371h-189z" />
<glyph unicode="&#xe9;" horiz-adv-x="977" d="M-184 0l387 850h735l-135 -297h-344l-117 -256h344l-135 -297h-735zM295 1055l135 297h735l-135 -297h-735zM694 1452l231 371h361l-391 -371h-201z" />
<glyph unicode="&#xea;" horiz-adv-x="977" d="M-184 0l387 850h735l-135 -297h-344l-117 -256h344l-135 -297h-735zM295 1055l135 297h735l-135 -297h-735zM485 1452l342 371h311l45 -371h-164l-90 180l-258 -180h-186z" />
<glyph unicode="&#xeb;" horiz-adv-x="977" d="M-184 0l387 850h735l-135 -297h-344l-117 -256h344l-135 -297h-735zM295 1055l135 297h735l-135 -297h-735zM503 1475l144 323h272l-143 -323h-273zM895 1475l143 323h272l-143 -323h-272z" />
<glyph unicode="&#xec;" horiz-adv-x="635" d="M-184 0l614 1352h391l-614 -1352h-391zM256 1823h317l166 -371h-189z" />
<glyph unicode="&#xed;" horiz-adv-x="635" d="M-184 0l614 1352h391l-614 -1352h-391zM522 1452l231 371h361l-391 -371h-201z" />
<glyph unicode="&#xee;" horiz-adv-x="635" d="M-184 0l614 1352h391l-614 -1352h-391zM313 1452l342 371h311l45 -371h-164l-90 180l-258 -180h-186z" />
<glyph unicode="&#xef;" horiz-adv-x="635" d="M-184 0l614 1352h391l-614 -1352h-391zM331 1475l144 323h272l-143 -323h-273zM723 1475l143 323h272l-143 -323h-272z" />
<glyph unicode="&#xf0;" d="M-184 0l262 582h-133l121 268h632l-123 -268h-106l-127 -285h107q54 0 84 19t53 67l264 582q4 8 6 16t2 16q0 26 -20.5 42t-53.5 16h-489l135 297h709q90 0 142 -40t52 -108q0 -17 -6 -38.5t-18 -47.5l-418 -921q-50 -112 -125 -154.5t-236 -42.5h-714z" />
<glyph unicode="&#xf1;" d="M-184 0l387 850h389l-385 -850h-391zM297 1055l133 297h709q90 0 141 -40t51 -110q0 -17 -5.5 -38.5t-16.5 -45.5l-508 -1118h-389l438 965q3 7 4.5 15t1.5 15q0 29 -18.5 44.5t-53.5 15.5h-487zM565 1464q57 168 121.5 239t157.5 71q28 0 53 -5.5t51 -17.5l78 -31 q14 -6 30 -9t34 -3q41 0 71 25.5t43 72.5h136q-45 -151 -113.5 -225t-163.5 -74q-24 0 -47.5 5t-44.5 14l-75 32q-12 5 -26.5 8t-29.5 3q-43 0 -77 -25.5t-62 -79.5h-136z" />
<glyph unicode="&#xf2;" d="M-100 147q0 17 6 38.5t18 47.5l416 922q51 111 125 154t235 43h439q90 0 142 -40t52 -108q0 -19 -5.5 -40.5t-16.5 -44.5l-420 -922q-50 -112 -125 -154.5t-236 -42.5h-438q-89 0 -140.5 39.5t-51.5 107.5zM377 354q0 -27 22.5 -42t63.5 -15t70.5 21t50.5 65l264 582 q5 12 6.5 18.5t1.5 11.5q0 27 -21 43.5t-57 16.5q-46 0 -78.5 -21.5t-52.5 -64.5l-262 -578q-4 -8 -6 -17t-2 -20zM555 1823h317l166 -371h-189z" />
<glyph unicode="&#xf3;" d="M-100 147q0 17 6 38.5t18 47.5l416 922q51 111 125 154t235 43h439q90 0 142 -40t52 -108q0 -19 -5.5 -40.5t-16.5 -44.5l-420 -922q-50 -112 -125 -154.5t-236 -42.5h-438q-89 0 -140.5 39.5t-51.5 107.5zM377 354q0 -27 22.5 -42t63.5 -15t70.5 21t50.5 65l264 582 q5 12 6.5 18.5t1.5 11.5q0 27 -21 43.5t-57 16.5q-46 0 -78.5 -21.5t-52.5 -64.5l-262 -578q-4 -8 -6 -17t-2 -20zM821 1452l231 371h361l-391 -371h-201z" />
<glyph unicode="&#xf4;" d="M-100 147q0 17 6 38.5t18 47.5l416 922q51 111 125 154t235 43h439q90 0 142 -40t52 -108q0 -19 -5.5 -40.5t-16.5 -44.5l-420 -922q-50 -112 -125 -154.5t-236 -42.5h-438q-89 0 -140.5 39.5t-51.5 107.5zM377 354q0 -27 22.5 -42t63.5 -15t70.5 21t50.5 65l264 582 q5 12 6.5 18.5t1.5 11.5q0 27 -21 43.5t-57 16.5q-46 0 -78.5 -21.5t-52.5 -64.5l-262 -578q-4 -8 -6 -17t-2 -20zM612 1452l342 371h311l45 -371h-164l-90 180l-258 -180h-186z" />
<glyph unicode="&#xf5;" d="M-100 147q0 17 6 38.5t18 47.5l416 922q51 111 125 154t235 43h439q90 0 142 -40t52 -108q0 -19 -5.5 -40.5t-16.5 -44.5l-420 -922q-50 -112 -125 -154.5t-236 -42.5h-438q-89 0 -140.5 39.5t-51.5 107.5zM377 354q0 -27 22.5 -42t63.5 -15t70.5 21t50.5 65l264 582 q5 12 6.5 18.5t1.5 11.5q0 27 -21 43.5t-57 16.5q-46 0 -78.5 -21.5t-52.5 -64.5l-262 -578q-4 -8 -6 -17t-2 -20zM632 1464q57 168 121.5 239t157.5 71q28 0 53 -5.5t51 -17.5l78 -31q14 -6 30 -9t34 -3q41 0 71 25.5t43 72.5h136q-45 -151 -113.5 -225t-163.5 -74 q-24 0 -47.5 5t-44.5 14l-75 32q-12 5 -26.5 8t-29.5 3q-43 0 -77 -25.5t-62 -79.5h-136z" />
<glyph unicode="&#xf6;" d="M-100 147q0 17 6 38.5t18 47.5l416 922q51 111 125 154t235 43h439q90 0 142 -40t52 -108q0 -19 -5.5 -40.5t-16.5 -44.5l-420 -922q-50 -112 -125 -154.5t-236 -42.5h-438q-89 0 -140.5 39.5t-51.5 107.5zM377 354q0 -27 22.5 -42t63.5 -15t70.5 21t50.5 65l264 582 q5 12 6.5 18.5t1.5 11.5q0 27 -21 43.5t-57 16.5q-46 0 -78.5 -21.5t-52.5 -64.5l-262 -578q-4 -8 -6 -17t-2 -20zM630 1475l144 323h272l-143 -323h-273zM1022 1475l143 323h272l-143 -323h-272z" />
<glyph unicode="&#xf7;" horiz-adv-x="1389" d="M82 545v262h1225v-262h-1225zM563 47v295h295v-295h-295zM563 1010v295h295v-295h-295z" />
<glyph unicode="&#xf8;" d="M-281 68l261 217v10q0 31 8 64t30 83l322 713q49 111 123.5 154t236.5 43h314q33 0 61.5 -7.5t52.5 -21.5l191 154l178 -207l-231 -185v-8q0 -28 -8.5 -60t-32.5 -89l-334 -731q-50 -112 -125 -154.5t-236 -42.5h-311q-33 0 -61.5 7t-53.5 22l-206 -170zM379 354 q0 -27 22.5 -42t63.5 -15t71 21t50 65l264 582q5 12 6.5 18.5t1.5 11.5q0 28 -23 44t-63 16q-42 0 -74 -22.5t-51 -63.5l-260 -578q-4 -8 -6 -17t-2 -20z" />
<glyph unicode="&#xf9;" d="M-100 147q0 20 5.5 41.5t16.5 44.5l508 1119h391l-432 -955q-5 -10 -7.5 -20.5t-2.5 -22.5q0 -28 21.5 -42.5t62.5 -14.5t72 21.5t51 64.5l440 969h389l-524 -1155q-50 -111 -125 -154t-236 -43h-438q-89 0 -140.5 39.5t-51.5 107.5zM537 1823h317l166 -371h-189z" />
<glyph unicode="&#xfa;" d="M-100 147q0 20 5.5 41.5t16.5 44.5l508 1119h391l-432 -955q-5 -10 -7.5 -20.5t-2.5 -22.5q0 -28 21.5 -42.5t62.5 -14.5t72 21.5t51 64.5l440 969h389l-524 -1155q-50 -111 -125 -154t-236 -43h-438q-89 0 -140.5 39.5t-51.5 107.5zM803 1452l231 371h361l-391 -371 h-201z" />
<glyph unicode="&#xfb;" d="M-100 147q0 20 5.5 41.5t16.5 44.5l508 1119h391l-432 -955q-5 -10 -7.5 -20.5t-2.5 -22.5q0 -28 21.5 -42.5t62.5 -14.5t72 21.5t51 64.5l440 969h389l-524 -1155q-50 -111 -125 -154t-236 -43h-438q-89 0 -140.5 39.5t-51.5 107.5zM594 1452l342 371h311l45 -371h-164 l-90 180l-258 -180h-186z" />
<glyph unicode="&#xfc;" d="M-100 147q0 20 5.5 41.5t16.5 44.5l508 1119h391l-432 -955q-5 -10 -7.5 -20.5t-2.5 -22.5q0 -28 21.5 -42.5t62.5 -14.5t72 21.5t51 64.5l440 969h389l-524 -1155q-50 -111 -125 -154t-236 -43h-438q-89 0 -140.5 39.5t-51.5 107.5zM612 1475l144 323h272l-143 -323 h-273zM1004 1475l143 323h272l-143 -323h-272z" />
<glyph unicode="&#xfd;" d="M-184 0l135 297h498q51 0 83.5 20.5t53.5 65.5l35 74h-322q-90 0 -141.5 39t-51.5 108q1 20 6.5 41.5t16.5 44.5l301 662h391l-231 -502q-3 -6 -4.5 -15t-1.5 -22q0 -28 21 -43.5t61 -15.5h88l272 598h389l-524 -1155q-50 -112 -125 -154.5t-236 -42.5h-714zM821 1452 l231 371h361l-391 -371h-201z" />
<glyph unicode="&#xfe;" horiz-adv-x="1204" d="M-184 0l614 1352h395l-92 -203h316q90 0 141 -39.5t51 -108.5q0 -18 -5.5 -39.5t-16.5 -45.5l-218 -480q-48 -109 -106 -145.5t-197 -36.5h-374l-117 -254h-391zM459 551h207l92 211q3 8 4.5 15.5t1.5 15.5q0 26 -20 42.5t-52 16.5h-94z" />
<glyph unicode="&#xff;" d="M-184 0l135 297h498q51 0 83.5 20.5t53.5 65.5l35 74h-322q-90 0 -141.5 39t-51.5 108q1 20 6.5 41.5t16.5 44.5l301 662h391l-231 -502q-3 -6 -4.5 -15t-1.5 -22q0 -28 21 -43.5t61 -15.5h88l272 598h389l-524 -1155q-50 -112 -125 -154.5t-236 -42.5h-714zM630 1475 l144 323h272l-143 -323h-273zM1022 1475l143 323h272l-143 -323h-272z" />
<glyph unicode="&#x152;" horiz-adv-x="1573" d="M-100 147q0 17 6 38.5t18 47.5l416 922q51 111 125 154t235 43h1061l-135 -297h-369l-92 -205h369l-135 -297h-369l-117 -256h369l-135 -297h-1055q-89 0 -140.5 39.5t-51.5 107.5zM379 354q0 -27 18.5 -42t51.5 -15h96l348 758h-109q-50 0 -83.5 -21.5t-53.5 -64.5 l-260 -578q-4 -9 -6 -18.5t-2 -18.5z" />
<glyph unicode="&#x153;" horiz-adv-x="1573" d="M-100 147q0 17 6 38.5t18 47.5l416 922q51 111 125 154t235 43h1061l-135 -297h-369l-92 -205h369l-135 -297h-369l-117 -256h369l-135 -297h-1055q-89 0 -140.5 39.5t-51.5 107.5zM379 354q0 -27 18.5 -42t51.5 -15h96l348 758h-109q-50 0 -83.5 -21.5t-53.5 -64.5 l-260 -578q-4 -9 -6 -18.5t-2 -18.5z" />
<glyph unicode="&#x178;" d="M-184 0l135 297h498q51 0 83.5 20.5t53.5 65.5l35 74h-322q-90 0 -141.5 39t-51.5 108q1 20 6.5 41.5t16.5 44.5l301 662h391l-231 -502q-3 -6 -4.5 -15t-1.5 -22q0 -28 21 -43.5t61 -15.5h88l272 598h389l-524 -1155q-50 -112 -125 -154.5t-236 -42.5h-714zM630 1475 l144 323h272l-143 -323h-273zM1022 1475l143 323h272l-143 -323h-272z" />
<glyph unicode="&#x2c6;" horiz-adv-x="1024" d="M508 1452l342 371h311l45 -371h-164l-90 180l-258 -180h-186z" />
<glyph unicode="&#x2dc;" horiz-adv-x="1024" d="M528 1464q57 168 121.5 239t157.5 71q28 0 53 -5.5t51 -17.5l78 -31q14 -6 30 -9t34 -3q41 0 71 25.5t43 72.5h136q-45 -151 -113.5 -225t-163.5 -74q-24 0 -47.5 5t-44.5 14l-75 32q-12 5 -26.5 8t-29.5 3q-43 0 -77 -25.5t-62 -79.5h-136z" />
<glyph unicode="&#x2000;" horiz-adv-x="1005" />
<glyph unicode="&#x2001;" horiz-adv-x="2011" />
<glyph unicode="&#x2002;" horiz-adv-x="1005" />
<glyph unicode="&#x2003;" horiz-adv-x="2011" />
<glyph unicode="&#x2004;" horiz-adv-x="670" />
<glyph unicode="&#x2005;" horiz-adv-x="502" />
<glyph unicode="&#x2006;" horiz-adv-x="335" />
<glyph unicode="&#x2007;" horiz-adv-x="335" />
<glyph unicode="&#x2008;" horiz-adv-x="251" />
<glyph unicode="&#x2009;" horiz-adv-x="402" />
<glyph unicode="&#x200a;" horiz-adv-x="111" />
<glyph unicode="&#x2010;" horiz-adv-x="797" d="M29 532l145 314h592l-143 -314h-594z" />
<glyph unicode="&#x2011;" horiz-adv-x="797" d="M29 532l145 314h592l-143 -314h-594z" />
<glyph unicode="&#x2012;" horiz-adv-x="797" d="M29 532l145 314h592l-143 -314h-594z" />
<glyph unicode="&#x2013;" horiz-adv-x="1024" d="M-74 561l119 256h1053l-119 -256h-1053z" />
<glyph unicode="&#x2014;" horiz-adv-x="2048" d="M-74 561l119 256h2077l-119 -256h-2077z" />
<glyph unicode="&#x2018;" horiz-adv-x="639" d="M125 768l475 584h223l-266 -584h-432z" />
<glyph unicode="&#x2019;" horiz-adv-x="639" d="M166 768l266 584h432l-475 -584h-223z" />
<glyph unicode="&#x201a;" horiz-adv-x="639" d="M-315 -287l266 584h432l-475 -584h-223z" />
<glyph unicode="&#x201c;" horiz-adv-x="1176" d="M125 768l475 584h223l-266 -584h-432zM659 768l476 584h221l-266 -584h-431z" />
<glyph unicode="&#x201d;" horiz-adv-x="1176" d="M166 768l266 584h432l-475 -584h-223zM700 768l267 584h430l-475 -584h-222z" />
<glyph unicode="&#x201e;" horiz-adv-x="1176" d="M-315 -287l266 584h432l-475 -584h-223zM219 -287l266 584h430l-473 -584h-223z" />
<glyph unicode="&#x2022;" horiz-adv-x="1208" d="M307 762q0 123 87 209t210 86q122 0 208.5 -86.5t86.5 -208.5t-87.5 -209.5t-209.5 -87.5q-123 0 -209 87t-86 210z" />
<glyph unicode="&#x2026;" horiz-adv-x="2048" d="M-164 0l158 338h389l-155 -338h-392zM518 0l158 338h389l-155 -338h-392zM1202 0l158 338h389l-155 -338h-392z" />
<glyph unicode="&#x202f;" horiz-adv-x="402" />
<glyph unicode="&#x2039;" horiz-adv-x="721" d="M35 588l438 477l199 -203l-305 -321l157 -365l-268 -102z" />
<glyph unicode="&#x203a;" horiz-adv-x="721" d="M-16 276l305 322l-158 365l268 102l222 -514l-439 -477z" />
<glyph unicode="&#x205f;" horiz-adv-x="502" />
<glyph unicode="&#x20ac;" d="M-43 457l68 147h170l63 144h-168l68 147h166l120 260q52 112 123 154.5t238 42.5h377q90 0 141 -40t51 -110q0 -14 -6 -35.5t-18 -48.5l-27 -63h-434q-51 0 -84 -21t-53 -65l-33 -74h334l-68 -147h-332l-63 -144h328l-68 -147h-326l-34 -69q-4 -7 -6.5 -15.5t-2.5 -16.5 q0 -27 19.5 -43t52.5 -16h457l-45 -100q-50 -112 -121.5 -154.5t-239.5 -42.5h-407q-90 0 -141.5 40t-51.5 107q0 18 6 40.5t17 45.5l102 224h-172z" />
<glyph unicode="&#x2122;" horiz-adv-x="1706" d="M207 1350v112h485v-112h-168v-435h-149v435h-168zM803 915v547h196l127 -332l123 332h197v-547h-135v410l-154 -410h-61l-158 410v-410h-135z" />
<glyph unicode="&#x25fc;" horiz-adv-x="1350" d="M0 0v1350h1350v-1350h-1350z" />
<glyph unicode="&#xfb01;" horiz-adv-x="1579" d="M-184 0l387 850h735l-135 -297h-344l-252 -553h-391zM295 1055l135 297h735l-135 -297h-735zM760 0l614 1352h391l-614 -1352h-391z" />
<glyph unicode="&#xfb02;" horiz-adv-x="1849" d="M-184 0l387 850h735l-135 -297h-344l-252 -553h-391zM295 1055l135 297h735l-135 -297h-735zM760 0l614 1352h391l-479 -1055h365l-136 -297h-755z" />
</font>
</defs>
</svg>
